<svg width="329" height="44" viewBox="0 0 329 44" fill="none" xmlns="http://www.w3.org/2000/svg">
<path d="M295.221 29.9236C295.221 24.9065 297.116 20.6937 300.908 17.2852C304.738 13.915 309.18 12.2299 314.236 12.2299C318.563 12.2299 322.087 13.4554 324.806 15.9065C327.602 18.3193 329 21.5171 329 25.5002C329 30.5555 327.085 34.7683 323.255 38.1385C319.502 41.5088 315.078 43.1939 309.985 43.1939C305.734 43.1939 302.191 41.9875 299.357 39.5747C296.599 37.0853 295.221 33.8683 295.221 29.9236ZM305.274 29.464C305.274 31.1491 305.772 32.4896 306.768 33.4853C307.763 34.4428 309.085 34.9215 310.731 34.9215C312.876 34.9215 314.772 34.0981 316.419 32.4513C318.104 30.7661 318.946 28.6597 318.946 26.1321C318.946 24.4087 318.449 23.0491 317.453 22.0533C316.457 21.0193 315.155 20.5022 313.546 20.5022C311.478 20.5022 309.582 21.364 307.859 23.0874C306.136 24.7725 305.274 26.898 305.274 29.464Z" fill="#194039"/>
<path d="M257.76 27.7407C257.76 23.0683 259.004 19.3151 261.494 16.481C264.022 13.647 267.334 12.2299 271.432 12.2299C273.385 12.2299 274.975 12.5172 276.2 13.0916C277.464 13.6661 278.326 14.2406 278.785 14.8151L279.015 15.1597H279.13C279.092 14.8151 279.073 14.1831 279.073 13.264V8.61077H275.051V1.42987H289.011V34.0599C289.011 34.9024 289.432 35.3237 290.275 35.3237H292.458V42.5046H283.898C282.596 42.5046 281.6 42.2174 280.911 41.6429C280.26 41.0301 279.934 40.2833 279.934 39.4024V39.2301L280.049 38.3109H279.934C279.896 38.3492 279.839 38.445 279.762 38.5982C279.724 38.7131 279.609 38.9046 279.417 39.1727C279.226 39.4024 278.977 39.6897 278.671 40.0344C276.717 42.1408 274.094 43.194 270.8 43.194C266.894 43.194 263.734 41.7769 261.321 38.9429C258.947 36.0322 257.76 32.2981 257.76 27.7407ZM267.756 27.7407C267.756 29.8854 268.292 31.6279 269.364 32.9684C270.436 34.3088 271.815 34.979 273.5 34.979C275.185 34.979 276.583 34.3662 277.694 33.1407C278.805 31.8769 279.36 30.1535 279.36 27.9705C279.36 25.8258 278.843 24.0641 277.809 22.6853C276.813 21.3066 275.434 20.6172 273.673 20.6172C271.949 20.6172 270.532 21.2683 269.422 22.5704C268.311 23.8343 267.756 25.5577 267.756 27.7407Z" fill="#194039"/>
<path d="M224.037 34.0598C224.037 32.0683 224.592 30.364 225.703 28.947C226.852 27.4917 228.384 26.4576 230.299 25.8448C233.478 24.6959 236.656 24.1214 239.835 24.1214H241.616V23.2597C241.616 21.0767 240.218 19.9852 237.422 19.9852C235.086 19.9852 232.75 20.6746 230.414 22.0533L229.265 22.8001L225.818 16.0788C226.201 15.7724 226.948 15.332 228.058 14.7575C231.122 13.0724 234.55 12.2299 238.341 12.2299C242.631 12.2299 245.905 13.2639 248.165 15.332C250.425 17.4001 251.554 20.3874 251.554 24.2938V34.0598C251.554 34.9023 251.976 35.3236 252.818 35.3236H255.001V42.5045H246.442C245.139 42.5045 244.144 42.2173 243.454 41.6428C242.803 41.03 242.478 40.2832 242.478 39.4024V39.23L242.593 38.3109H242.478C242.439 38.3492 242.382 38.4449 242.305 38.5981C242.229 38.713 242.095 38.9045 241.903 39.1726C241.75 39.4024 241.52 39.6896 241.214 40.0343C239.261 42.1407 236.771 43.1939 233.746 43.1939C231.065 43.1939 228.767 42.3896 226.852 40.7811C224.975 39.1726 224.037 36.9321 224.037 34.0598ZM234.033 33.3704C234.033 34.1364 234.263 34.7683 234.722 35.2662C235.22 35.764 235.871 36.013 236.675 36.013C237.863 36.013 239.012 35.4002 240.122 34.1747C241.195 32.9874 241.731 31.7236 241.731 30.3832V29.6938H240.812C238.858 29.6938 237.231 30.0193 235.929 30.6704C234.665 31.2832 234.033 32.1832 234.033 33.3704Z" fill="#194039"/>
<path d="M215.618 42.5045H197.637V35.3236H201.658V21.3639C201.658 20.5214 201.237 20.1001 200.394 20.1001H197.637V12.9192H207.001C209.796 12.9192 211.194 14.183 211.194 16.7107V18.2618L211.079 19.7554H211.194C211.884 17.649 213.09 15.9064 214.813 14.5277C216.575 13.1107 218.509 12.4022 220.616 12.4022L221.765 12.5171V22.2831C221.267 22.1682 220.596 22.1107 219.754 22.1107C217.111 22.1107 215.082 22.8958 213.664 24.4661C212.286 25.998 211.596 28.181 211.596 31.015V35.3236H215.618V42.5045Z" fill="#194039"/>
<path d="M164.576 27.6831C164.576 23.2406 165.974 19.5639 168.77 16.6533C171.604 13.7043 175.338 12.2299 179.972 12.2299C184.3 12.2299 187.67 13.5703 190.083 16.2512C192.534 18.8554 193.759 22.2831 193.759 26.5342L193.53 29.5215H174.744C175.089 31.2832 175.874 32.6427 177.1 33.6002C178.363 34.5194 179.876 34.9789 181.638 34.9789C184.089 34.9789 186.502 34.2704 188.876 32.8534L189.968 32.164L193.587 39.0577C193.127 39.4407 192.61 39.8236 192.036 40.2066C191.27 40.7045 189.815 41.3173 187.67 42.0449C185.449 42.8109 183.17 43.1939 180.834 43.1939C175.855 43.1939 171.891 41.662 168.942 38.5981C166.031 35.5726 164.576 31.9342 164.576 27.6831ZM174.974 24.064H183.476C183.476 22.8767 183.112 21.8618 182.385 21.0193C181.657 20.1384 180.776 19.698 179.742 19.698C177.176 19.698 175.587 21.1533 174.974 24.064Z" fill="#194039"/>
<path d="M126.6 27.7407C126.6 23.0683 127.844 19.3151 130.334 16.481C132.861 13.647 136.174 12.2299 140.272 12.2299C142.225 12.2299 143.815 12.5172 145.04 13.0916C146.304 13.6661 147.166 14.2406 147.625 14.8151L147.855 15.1597H147.97C147.932 14.8151 147.913 14.1831 147.913 13.264V8.61077H143.891V1.42987H157.851V34.0599C157.851 34.9024 158.272 35.3237 159.115 35.3237H161.298V42.5046H152.738C151.436 42.5046 150.44 42.2174 149.751 41.6429C149.1 41.0301 148.774 40.2833 148.774 39.4024V39.2301L148.889 38.3109H148.774C148.736 38.3492 148.678 38.445 148.602 38.5982C148.564 38.7131 148.449 38.9046 148.257 39.1727C148.066 39.4024 147.817 39.6897 147.51 40.0344C145.557 42.1408 142.934 43.194 139.64 43.194C135.734 43.194 132.574 41.7769 130.161 38.9429C127.787 36.0322 126.6 32.2981 126.6 27.7407ZM136.595 27.7407C136.595 29.8854 137.132 31.6279 138.204 32.9684C139.276 34.3088 140.655 34.979 142.34 34.979C144.025 34.979 145.423 34.3662 146.534 33.1407C147.644 31.8769 148.2 30.1535 148.2 27.9705C148.2 25.8258 147.683 24.0641 146.649 22.6853C145.653 21.3066 144.274 20.6172 142.512 20.6172C140.789 20.6172 139.372 21.2683 138.261 22.5704C137.151 23.8343 136.595 25.5577 136.595 27.7407Z" fill="#194039"/>
<path d="M92.1758 27.5386C92.1758 23.096 93.5737 19.4194 96.3694 16.5087C99.2035 13.5597 102.938 12.0853 107.572 12.0853C111.899 12.0853 115.27 13.4257 117.682 16.1066C120.133 18.7108 121.359 22.1385 121.359 26.3896L121.129 29.3769H102.344C102.689 31.1386 103.474 32.4982 104.699 33.4556C105.963 34.3748 107.476 34.8343 109.238 34.8343C111.689 34.8343 114.101 34.1258 116.476 32.7088L117.567 32.0194L121.187 38.9131C120.727 39.2961 120.21 39.6791 119.636 40.062C118.87 40.5599 117.414 41.1727 115.27 41.9003C113.048 42.6663 110.77 43.0493 108.433 43.0493C103.455 43.0493 99.4907 41.5174 96.5418 38.4535C93.6311 35.428 92.1758 31.7896 92.1758 27.5386ZM102.574 23.9194H111.076C111.076 22.7321 110.712 21.7172 109.984 20.8747C109.257 19.9938 108.376 19.5534 107.342 19.5534C104.776 19.5534 103.186 21.0087 102.574 23.9194Z" fill="#194039"/>
<path d="M81.7678 42.5046H61.7188V35.0365H66.3145V8.898H61.7188V1.42987H92.3381V13.5512H83.721V10.0469H76.5976V18.9513H88.6615V26.9939H76.5976V35.0365H81.7678V42.5046Z" fill="#194039"/>
<path d="M0 24.8682C0 20.6554 1.12979 16.6724 3.38938 12.9192C5.64897 9.166 8.67452 6.1979 12.466 4.01491C16.2575 1.83191 20.3171 0.740417 24.6448 0.740417C30.1981 0.740417 34.7172 2.42553 38.2024 5.79577C41.6875 9.166 43.4301 13.4554 43.4301 18.6639C43.5449 22.8767 42.4152 26.9172 40.0407 30.7853C37.7045 34.6151 34.6023 37.6789 30.7342 39.9768C26.8661 42.2364 22.864 43.3088 18.7278 43.1939C13.2128 43.1939 8.69367 41.4896 5.17024 38.0811C1.72341 34.6342 0 30.23 0 24.8682ZM10.3405 24.2938C10.3405 27.281 11.1639 29.6938 12.8107 31.5321C14.4958 33.3704 16.6788 34.2896 19.3597 34.2896C22.8065 34.2896 25.947 32.8151 28.781 29.8661C31.6151 26.9172 33.0321 23.3937 33.0321 19.2959C33.0321 16.4235 32.1896 14.1065 30.5044 12.3447C28.8193 10.5447 26.6363 9.64473 23.9555 9.64473C20.432 9.64473 17.2724 11.0809 14.4767 13.9533C11.7192 16.8256 10.3405 20.2725 10.3405 24.2938Z" fill="#194039"/>
</svg>
