<svg width="36" height="36" viewBox="0 0 36 36" fill="none" xmlns="http://www.w3.org/2000/svg">
<path d="M13.3714 0C16.9178 0 20.3188 1.40877 22.8265 3.9164C25.3341 6.42403 26.7429 9.8251 26.7429 13.3714C26.7429 16.5614 26.3818 18.5077 24.5723 20.7421C24.453 20.8895 24.4595 21.1038 24.5921 21.2394L34.496 31.3751C35.3294 32.228 35.3215 33.5927 34.4783 34.436C33.6185 35.2957 32.2213 35.2847 31.3753 34.4114L21.6069 24.3285C21.4766 24.1939 21.2641 24.1843 21.1185 24.3022C18.8575 26.1317 16.5626 26.7429 13.3714 26.7429C9.8251 26.7429 6.42403 25.3341 3.9164 22.8265C1.40877 20.3188 0 16.9178 0 13.3714C0 9.8251 1.40877 6.42403 3.9164 3.9164C6.42403 1.40877 9.8251 0 13.3714 0ZM13.3714 4.11429C8.22857 4.11429 4.11429 8.22857 4.11429 13.3714C4.11429 18.5143 8.22857 22.6286 13.3714 22.6286C18.5143 22.6286 22.6286 18.5143 22.6286 13.3714C22.6286 8.22857 18.5143 4.11429 13.3714 4.11429Z" fill="#1E1E1E"/>
</svg>
